<mxfile host="65bd71144e">
    <diagram id="CX12M5_NCcWMnKTFGWMR" name="Page-1">
        <mxGraphModel dx="1135" dy="1024" grid="1" gridSize="10" guides="1" tooltips="1" connect="1" arrows="1" fold="1" page="1" pageScale="1" pageWidth="850" pageHeight="1100" math="0" shadow="0">
            <root>
                <mxCell id="0"/>
                <mxCell id="1" parent="0"/>
                <mxCell id="5" value="load_resp" style="rounded=0;whiteSpace=wrap;html=1;fillColor=#dae8fc;strokeColor=#6c8ebf;sketch=1;curveFitting=1;jiggle=2;" parent="1" vertex="1">
                    <mxGeometry x="270" y="50" width="120" height="60" as="geometry"/>
                </mxCell>
                <mxCell id="6" value="" style="shape=flexArrow;endArrow=classic;html=1;sketch=1;curveFitting=1;jiggle=2;" parent="1" edge="1">
                    <mxGeometry width="50" height="50" relative="1" as="geometry">
                        <mxPoint x="400" y="79.5" as="sourcePoint"/>
                        <mxPoint x="480" y="79.5" as="targetPoint"/>
                    </mxGeometry>
                </mxCell>
                <mxCell id="7" value="" style="shape=flexArrow;endArrow=classic;html=1;sketch=1;curveFitting=1;jiggle=2;" parent="1" edge="1">
                    <mxGeometry width="50" height="50" relative="1" as="geometry">
                        <mxPoint x="170" y="79.5" as="sourcePoint"/>
                        <mxPoint x="250" y="79.5" as="targetPoint"/>
                    </mxGeometry>
                </mxCell>
                <mxCell id="10" value="Path to the response file" style="text;html=1;align=center;verticalAlign=middle;resizable=0;points=[];autosize=1;strokeColor=none;fillColor=none;sketch=1;curveFitting=1;jiggle=2;" parent="1" vertex="1">
                    <mxGeometry x="125" y="18" width="150" height="30" as="geometry"/>
                </mxCell>
                <mxCell id="12" value="t, u, x_b, x_t&amp;nbsp;" style="text;html=1;align=center;verticalAlign=middle;whiteSpace=wrap;rounded=0;sketch=1;curveFitting=1;jiggle=2;" parent="1" vertex="1">
                    <mxGeometry x="395" y="30" width="95" height="30" as="geometry"/>
                </mxCell>
                <mxCell id="13" value="load_wind" style="rounded=0;whiteSpace=wrap;html=1;fillColor=#dae8fc;strokeColor=#6c8ebf;sketch=1;curveFitting=1;jiggle=2;" parent="1" vertex="1">
                    <mxGeometry x="275" y="190" width="120" height="60" as="geometry"/>
                </mxCell>
                <mxCell id="14" value="" style="shape=flexArrow;endArrow=classic;html=1;sketch=1;curveFitting=1;jiggle=2;" parent="1" edge="1">
                    <mxGeometry width="50" height="50" relative="1" as="geometry">
                        <mxPoint x="170" y="219.5" as="sourcePoint"/>
                        <mxPoint x="250" y="219.5" as="targetPoint"/>
                    </mxGeometry>
                </mxCell>
                <mxCell id="15" value="" style="shape=flexArrow;endArrow=classic;html=1;sketch=1;curveFitting=1;jiggle=2;" parent="1" edge="1">
                    <mxGeometry width="50" height="50" relative="1" as="geometry">
                        <mxPoint x="420" y="219.5" as="sourcePoint"/>
                        <mxPoint x="500" y="219.5" as="targetPoint"/>
                    </mxGeometry>
                </mxCell>
                <mxCell id="17" value="Path to the response file&lt;div&gt;&lt;br&gt;&lt;/div&gt;" style="text;html=1;align=center;verticalAlign=middle;whiteSpace=wrap;rounded=0;sketch=1;curveFitting=1;jiggle=2;" parent="1" vertex="1">
                    <mxGeometry x="105" y="160" width="170" height="30" as="geometry"/>
                </mxCell>
                <mxCell id="18" value="t_wind, u_wind" style="text;html=1;align=center;verticalAlign=middle;whiteSpace=wrap;rounded=0;sketch=1;curveFitting=1;jiggle=2;" parent="1" vertex="1">
                    <mxGeometry x="412.5" y="160" width="107.5" height="30" as="geometry"/>
                </mxCell>
                <mxCell id="19" value="plot_resp" style="rounded=0;whiteSpace=wrap;html=1;fillColor=#d5e8d4;strokeColor=#82b366;sketch=1;curveFitting=1;jiggle=2;" parent="1" vertex="1">
                    <mxGeometry x="280" y="320" width="120" height="60" as="geometry"/>
                </mxCell>
                <mxCell id="20" value="" style="shape=flexArrow;endArrow=classic;html=1;sketch=1;curveFitting=1;jiggle=2;" parent="1" edge="1">
                    <mxGeometry width="50" height="50" relative="1" as="geometry">
                        <mxPoint x="180" y="349.5" as="sourcePoint"/>
                        <mxPoint x="260" y="349.5" as="targetPoint"/>
                    </mxGeometry>
                </mxCell>
                <mxCell id="21" value="" style="shape=flexArrow;endArrow=classic;html=1;sketch=1;curveFitting=1;jiggle=2;" parent="1" edge="1">
                    <mxGeometry width="50" height="50" relative="1" as="geometry">
                        <mxPoint x="420" y="349.5" as="sourcePoint"/>
                        <mxPoint x="500" y="349.5" as="targetPoint"/>
                    </mxGeometry>
                </mxCell>
                <mxCell id="24" value="t, u, x_b, x_t, xlim = (60, 660)" style="text;html=1;align=center;verticalAlign=middle;whiteSpace=wrap;rounded=0;sketch=1;curveFitting=1;jiggle=2;" parent="1" vertex="1">
                    <mxGeometry x="80" y="290" width="170" height="30" as="geometry"/>
                </mxCell>
                <mxCell id="25" value="Figure and axes of the plots" style="text;html=1;align=center;verticalAlign=middle;whiteSpace=wrap;rounded=0;sketch=1;curveFitting=1;jiggle=2;" parent="1" vertex="1">
                    <mxGeometry x="425" y="300" width="115" height="30" as="geometry"/>
                </mxCell>
                <mxCell id="27" value="load_turbie_parameters" style="rounded=0;whiteSpace=wrap;html=1;fillColor=#dae8fc;strokeColor=#6c8ebf;sketch=1;curveFitting=1;jiggle=2;" parent="1" vertex="1">
                    <mxGeometry x="280" y="430" width="160" height="60" as="geometry"/>
                </mxCell>
                <mxCell id="28" value="" style="shape=flexArrow;endArrow=classic;html=1;sketch=1;curveFitting=1;jiggle=2;" parent="1" edge="1">
                    <mxGeometry width="50" height="50" relative="1" as="geometry">
                        <mxPoint x="190" y="459.5" as="sourcePoint"/>
                        <mxPoint x="270" y="459.5" as="targetPoint"/>
                    </mxGeometry>
                </mxCell>
                <mxCell id="29" value="" style="shape=flexArrow;endArrow=classic;html=1;sketch=1;curveFitting=1;jiggle=2;" parent="1" edge="1">
                    <mxGeometry width="50" height="50" relative="1" as="geometry">
                        <mxPoint x="450" y="459.5" as="sourcePoint"/>
                        <mxPoint x="530" y="459.5" as="targetPoint"/>
                    </mxGeometry>
                </mxCell>
                <mxCell id="31" value="Path to the response file" style="text;html=1;align=center;verticalAlign=middle;whiteSpace=wrap;rounded=0;sketch=1;curveFitting=1;jiggle=2;" parent="1" vertex="1">
                    <mxGeometry x="120" y="410" width="140" height="30" as="geometry"/>
                </mxCell>
                <mxCell id="32" value="parameters into a dictionary&lt;div&gt;&lt;br&gt;&lt;/div&gt;" style="text;html=1;align=center;verticalAlign=middle;whiteSpace=wrap;rounded=0;sketch=1;curveFitting=1;jiggle=2;" parent="1" vertex="1">
                    <mxGeometry x="440" y="420" width="187.5" height="30" as="geometry"/>
                </mxCell>
                <mxCell id="33" value="get_turbie_system_matrices" style="rounded=0;whiteSpace=wrap;html=1;fillColor=#ffe6cc;strokeColor=#d79b00;sketch=1;curveFitting=1;jiggle=2;" parent="1" vertex="1">
                    <mxGeometry x="280" y="540" width="160" height="60" as="geometry"/>
                </mxCell>
                <mxCell id="34" value="" style="shape=flexArrow;endArrow=classic;html=1;sketch=1;curveFitting=1;jiggle=2;" parent="1" edge="1">
                    <mxGeometry width="50" height="50" relative="1" as="geometry">
                        <mxPoint x="190" y="569.5" as="sourcePoint"/>
                        <mxPoint x="270" y="569.5" as="targetPoint"/>
                    </mxGeometry>
                </mxCell>
                <mxCell id="35" value="" style="shape=flexArrow;endArrow=classic;html=1;sketch=1;curveFitting=1;jiggle=2;" parent="1" edge="1">
                    <mxGeometry width="50" height="50" relative="1" as="geometry">
                        <mxPoint x="460" y="569.5" as="sourcePoint"/>
                        <mxPoint x="540" y="569.5" as="targetPoint"/>
                    </mxGeometry>
                </mxCell>
                <mxCell id="36" value="Path to the response file&amp;nbsp;" style="text;html=1;align=center;verticalAlign=middle;whiteSpace=wrap;rounded=0;sketch=1;curveFitting=1;jiggle=2;" parent="1" vertex="1">
                    <mxGeometry x="125" y="520" width="135" height="30" as="geometry"/>
                </mxCell>
                <mxCell id="37" value="M.C,K" style="text;html=1;align=center;verticalAlign=middle;whiteSpace=wrap;rounded=0;sketch=1;curveFitting=1;jiggle=2;" parent="1" vertex="1">
                    <mxGeometry x="460" y="520" width="60" height="30" as="geometry"/>
                </mxCell>
                <mxCell id="38" value="calculate_ct" style="rounded=0;whiteSpace=wrap;html=1;fillColor=#ffe6cc;strokeColor=#d79b00;sketch=1;curveFitting=1;jiggle=2;" parent="1" vertex="1">
                    <mxGeometry x="280" y="650" width="160" height="60" as="geometry"/>
                </mxCell>
                <mxCell id="39" value="" style="shape=flexArrow;endArrow=classic;html=1;sketch=1;curveFitting=1;jiggle=2;" parent="1" edge="1">
                    <mxGeometry width="50" height="50" relative="1" as="geometry">
                        <mxPoint x="195" y="679.5" as="sourcePoint"/>
                        <mxPoint x="275" y="679.5" as="targetPoint"/>
                    </mxGeometry>
                </mxCell>
                <mxCell id="40" value="" style="shape=flexArrow;endArrow=classic;html=1;sketch=1;curveFitting=1;jiggle=2;" parent="1" edge="1">
                    <mxGeometry width="50" height="50" relative="1" as="geometry">
                        <mxPoint x="450" y="679.5" as="sourcePoint"/>
                        <mxPoint x="530" y="679.5" as="targetPoint"/>
                    </mxGeometry>
                </mxCell>
                <mxCell id="43" value="Path to the ct file&amp;nbsp;" style="text;html=1;align=center;verticalAlign=middle;whiteSpace=wrap;rounded=0;sketch=1;curveFitting=1;jiggle=2;" parent="1" vertex="1">
                    <mxGeometry x="133.75" y="630" width="112.5" height="20" as="geometry"/>
                </mxCell>
                <mxCell id="44" value="Interpolated ct value" style="text;html=1;align=center;verticalAlign=middle;whiteSpace=wrap;rounded=0;sketch=1;curveFitting=1;jiggle=2;" parent="1" vertex="1">
                    <mxGeometry x="452.5" y="630" width="60" height="30" as="geometry"/>
                </mxCell>
                <mxCell id="49" style="edgeStyle=none;html=1;entryX=0.5;entryY=0;entryDx=0;entryDy=0;exitX=1;exitY=0.5;exitDx=0;exitDy=0;sketch=1;curveFitting=1;jiggle=2;" parent="1" source="45" target="47" edge="1">
                    <mxGeometry relative="1" as="geometry">
                        <Array as="points">
                            <mxPoint x="678" y="815"/>
                        </Array>
                    </mxGeometry>
                </mxCell>
                <mxCell id="50" style="edgeStyle=none;html=1;entryX=0.5;entryY=0;entryDx=0;entryDy=0;sketch=1;curveFitting=1;jiggle=2;" parent="1" source="45" target="48" edge="1">
                    <mxGeometry relative="1" as="geometry"/>
                </mxCell>
                <mxCell id="45" value="if u_wind is an array, take the mean, if not take the value" style="rhombus;whiteSpace=wrap;html=1;sketch=1;curveFitting=1;jiggle=2;fillColor=#ffe6cc;strokeColor=#d79b00;" parent="1" vertex="1">
                    <mxGeometry x="360" y="760" width="200" height="110" as="geometry"/>
                </mxCell>
                <mxCell id="55" style="edgeStyle=none;html=1;entryX=1;entryY=0.5;entryDx=0;entryDy=0;sketch=1;curveFitting=1;jiggle=2;" parent="1" source="47" target="48" edge="1">
                    <mxGeometry relative="1" as="geometry">
                        <Array as="points">
                            <mxPoint x="680" y="980"/>
                        </Array>
                    </mxGeometry>
                </mxCell>
                <mxCell id="47" value="u_wind" style="rounded=0;whiteSpace=wrap;html=1;sketch=1;curveFitting=1;jiggle=2;fillColor=#ffe6cc;strokeColor=#d79b00;" parent="1" vertex="1">
                    <mxGeometry x="627.5" y="890" width="100" height="30" as="geometry"/>
                </mxCell>
                <mxCell id="48" value="mean(u_wind)" style="rounded=0;whiteSpace=wrap;html=1;sketch=1;curveFitting=1;jiggle=2;fillColor=#ffe6cc;strokeColor=#d79b00;" parent="1" vertex="1">
                    <mxGeometry x="410" y="960" width="100" height="30" as="geometry"/>
                </mxCell>
                <mxCell id="53" value="True" style="text;html=1;align=center;verticalAlign=middle;whiteSpace=wrap;rounded=0;sketch=1;curveFitting=1;jiggle=2;" parent="1" vertex="1">
                    <mxGeometry x="600" y="790" width="60" height="30" as="geometry"/>
                </mxCell>
                <mxCell id="54" value="False" style="text;html=1;align=center;verticalAlign=middle;whiteSpace=wrap;rounded=0;sketch=1;curveFitting=1;jiggle=2;" parent="1" vertex="1">
                    <mxGeometry x="470" y="900" width="60" height="30" as="geometry"/>
                </mxCell>
                <mxCell id="57" value="" style="rounded=0;whiteSpace=wrap;html=1;fillColor=#dae8fc;strokeColor=#6c8ebf;sketch=1;curveFitting=1;jiggle=2;" vertex="1" parent="1">
                    <mxGeometry x="670" y="70" width="40" height="10" as="geometry"/>
                </mxCell>
                <mxCell id="58" value="Legend for function colors:" style="text;html=1;align=center;verticalAlign=middle;whiteSpace=wrap;rounded=0;" vertex="1" parent="1">
                    <mxGeometry x="662.5" y="30" width="155" height="10" as="geometry"/>
                </mxCell>
                <mxCell id="60" value="data loading from file" style="text;html=1;align=center;verticalAlign=middle;whiteSpace=wrap;rounded=0;" vertex="1" parent="1">
                    <mxGeometry x="720" y="65" width="90" height="20" as="geometry"/>
                </mxCell>
                <mxCell id="61" value="" style="rounded=0;whiteSpace=wrap;html=1;fillColor=#d5e8d4;strokeColor=#82b366;sketch=1;curveFitting=1;jiggle=2;" vertex="1" parent="1">
                    <mxGeometry x="670" y="110" width="40" height="10" as="geometry"/>
                </mxCell>
                <mxCell id="62" value="plots" style="text;html=1;align=center;verticalAlign=middle;whiteSpace=wrap;rounded=0;" vertex="1" parent="1">
                    <mxGeometry x="727.5" y="105" width="90" height="20" as="geometry"/>
                </mxCell>
                <mxCell id="63" value="" style="rounded=0;whiteSpace=wrap;html=1;fillColor=#ffe6cc;strokeColor=#d79b00;sketch=1;curveFitting=1;jiggle=2;" vertex="1" parent="1">
                    <mxGeometry x="670" y="150" width="40" height="10" as="geometry"/>
                </mxCell>
                <mxCell id="64" value="data processing&amp;nbsp;" style="text;html=1;align=center;verticalAlign=middle;whiteSpace=wrap;rounded=0;" vertex="1" parent="1">
                    <mxGeometry x="727.5" y="145" width="90" height="20" as="geometry"/>
                </mxCell>
                <mxCell id="rHxyQxIsKKkzqerIoaWd-64" value="" style="rounded=0;whiteSpace=wrap;html=1;fillColor=#e1d5e7;strokeColor=#9673a6;sketch=1;curveFitting=1;jiggle=2;" vertex="1" parent="1">
                    <mxGeometry x="670" y="190" width="40" height="15" as="geometry"/>
                </mxCell>
                <mxCell id="ni3X5AVT_qCqIst-Crgx-64" value="save response" style="text;html=1;align=center;verticalAlign=middle;whiteSpace=wrap;rounded=0;" vertex="1" parent="1">
                    <mxGeometry x="737.5" y="185" width="90" height="20" as="geometry"/>
                </mxCell>
                <mxCell id="ni3X5AVT_qCqIst-Crgx-65" value="" style="endArrow=classic;html=1;exitX=0.5;exitY=1;exitDx=0;exitDy=0;entryX=0.304;entryY=0.21;entryDx=0;entryDy=0;entryPerimeter=0;" edge="1" parent="1" source="38" target="45">
                    <mxGeometry width="50" height="50" relative="1" as="geometry">
                        <mxPoint x="450" y="790" as="sourcePoint"/>
                        <mxPoint x="500" y="740" as="targetPoint"/>
                    </mxGeometry>
                </mxCell>
                <mxCell id="ni3X5AVT_qCqIst-Crgx-66" value="" style="rounded=0;whiteSpace=wrap;html=1;fillColor=none;strokeWidth=3;" vertex="1" parent="1">
                    <mxGeometry x="660" y="15" width="170" height="215" as="geometry"/>
                </mxCell>
            </root>
        </mxGraphModel>
    </diagram>
    <diagram id="BAmTpl5e4Z27GfmNXEjr" name="Page-2">
        <mxGraphModel dx="960" dy="866" grid="1" gridSize="10" guides="1" tooltips="1" connect="1" arrows="1" fold="1" page="1" pageScale="1" pageWidth="850" pageHeight="1100" math="0" shadow="0">
            <root>
                <mxCell id="0"/>
                <mxCell id="1" parent="0"/>
                <mxCell id="u-_mhO0pXEhHDN78etK2-1" value="calculate_dydt" style="rounded=0;whiteSpace=wrap;html=1;fillColor=#ffe6cc;strokeColor=#d79b00;sketch=1;curveFitting=1;jiggle=2;" parent="1" vertex="1">
                    <mxGeometry x="210" y="60" width="120" height="60" as="geometry"/>
                </mxCell>
                <mxCell id="I6hJf5W2uIQmNsdChL82-1" value="" style="shape=flexArrow;endArrow=classic;html=1;sketch=1;curveFitting=1;jiggle=2;" parent="1" edge="1">
                    <mxGeometry width="50" height="50" relative="1" as="geometry">
                        <mxPoint x="110" y="89.5" as="sourcePoint"/>
                        <mxPoint x="190" y="89.5" as="targetPoint"/>
                    </mxGeometry>
                </mxCell>
                <mxCell id="fsMT6UXEXX6Wuoif7FQN-1" value="" style="shape=flexArrow;endArrow=classic;html=1;sketch=1;curveFitting=1;jiggle=2;" parent="1" edge="1">
                    <mxGeometry width="50" height="50" relative="1" as="geometry">
                        <mxPoint x="345" y="89.5" as="sourcePoint"/>
                        <mxPoint x="425" y="89.5" as="targetPoint"/>
                    </mxGeometry>
                </mxCell>
                <mxCell id="fsMT6UXEXX6Wuoif7FQN-2" value="&lt;font face=&quot;Helvetica&quot;&gt;If there is wind&lt;/font&gt;" style="text;html=1;align=center;verticalAlign=middle;whiteSpace=wrap;rounded=0;sketch=1;curveFitting=1;jiggle=2;" parent="1" vertex="1">
                    <mxGeometry x="110" y="30" width="60" height="30" as="geometry"/>
                </mxCell>
                <mxCell id="fsMT6UXEXX6Wuoif7FQN-5" value="Time derivative of the state vector" style="text;html=1;align=center;verticalAlign=middle;whiteSpace=wrap;rounded=0;" parent="1" vertex="1">
                    <mxGeometry x="340" y="30" width="130" height="30" as="geometry"/>
                </mxCell>
                <mxCell id="6rU00mAETzhzcYMEljLu-1" value="simulate_turbie" style="rounded=0;whiteSpace=wrap;html=1;fillColor=#ffe6cc;strokeColor=#d79b00;sketch=1;curveFitting=1;jiggle=2;" parent="1" vertex="1">
                    <mxGeometry x="220" y="190" width="120" height="60" as="geometry"/>
                </mxCell>
                <mxCell id="6rU00mAETzhzcYMEljLu-2" value="" style="shape=flexArrow;endArrow=classic;html=1;sketch=1;curveFitting=1;jiggle=2;" parent="1" edge="1">
                    <mxGeometry width="50" height="50" relative="1" as="geometry">
                        <mxPoint x="120" y="219.55" as="sourcePoint"/>
                        <mxPoint x="200" y="219.55" as="targetPoint"/>
                    </mxGeometry>
                </mxCell>
                <mxCell id="6rU00mAETzhzcYMEljLu-3" value="" style="shape=flexArrow;endArrow=classic;html=1;sketch=1;curveFitting=1;jiggle=2;" parent="1" edge="1">
                    <mxGeometry width="50" height="50" relative="1" as="geometry">
                        <mxPoint x="355" y="219.55" as="sourcePoint"/>
                        <mxPoint x="435" y="219.55" as="targetPoint"/>
                    </mxGeometry>
                </mxCell>
                <mxCell id="xpy4Ac3LoxVdtLPhyupY-1" value="load_wind, load_turbie_parameters, calculate_ct, get_turbie_system_matrices," style="text;html=1;align=center;verticalAlign=middle;whiteSpace=wrap;rounded=0;" parent="1" vertex="1">
                    <mxGeometry x="80" y="150" width="90" height="40" as="geometry"/>
                </mxCell>
                <mxCell id="yNaC0Z5eCp66PJWSP2Fz-1" value="t, u_wind_interp, x_b,x_t" style="text;html=1;align=center;verticalAlign=middle;whiteSpace=wrap;rounded=0;" parent="1" vertex="1">
                    <mxGeometry x="365" y="160" width="60" height="30" as="geometry"/>
                </mxCell>
                <mxCell id="yNaC0Z5eCp66PJWSP2Fz-3" value="save_resp" style="rounded=0;whiteSpace=wrap;html=1;fillColor=#e1d5e7;strokeColor=#9673a6;sketch=1;curveFitting=1;jiggle=2;" parent="1" vertex="1">
                    <mxGeometry x="220" y="310" width="120" height="60" as="geometry"/>
                </mxCell>
                <mxCell id="yNaC0Z5eCp66PJWSP2Fz-4" value="" style="shape=flexArrow;endArrow=classic;html=1;sketch=1;curveFitting=1;jiggle=2;" parent="1" edge="1">
                    <mxGeometry width="50" height="50" relative="1" as="geometry">
                        <mxPoint x="130" y="339.55" as="sourcePoint"/>
                        <mxPoint x="210" y="339.55" as="targetPoint"/>
                    </mxGeometry>
                </mxCell>
                <mxCell id="yNaC0Z5eCp66PJWSP2Fz-5" value="" style="shape=flexArrow;endArrow=classic;html=1;sketch=1;curveFitting=1;jiggle=2;" parent="1" edge="1">
                    <mxGeometry width="50" height="50" relative="1" as="geometry">
                        <mxPoint x="355" y="339.55" as="sourcePoint"/>
                        <mxPoint x="435" y="339.55" as="targetPoint"/>
                    </mxGeometry>
                </mxCell>
                <mxCell id="yNaC0Z5eCp66PJWSP2Fz-8" value="t, u, x_b, x_t, path_save" style="text;html=1;align=center;verticalAlign=middle;whiteSpace=wrap;rounded=0;" parent="1" vertex="1">
                    <mxGeometry x="95" y="290" width="60" height="30" as="geometry"/>
                </mxCell>
                <mxCell id="yNaC0Z5eCp66PJWSP2Fz-11" value="response file" style="text;html=1;align=center;verticalAlign=middle;whiteSpace=wrap;rounded=0;" parent="1" vertex="1">
                    <mxGeometry x="350" y="280" width="60" height="30" as="geometry"/>
                </mxCell>
                <mxCell id="yNaC0Z5eCp66PJWSP2Fz-12" value="process_single_wind_file" style="rounded=0;whiteSpace=wrap;html=1;fillColor=#ffe6cc;strokeColor=#d79b00;sketch=1;curveFitting=1;jiggle=2;" parent="1" vertex="1">
                    <mxGeometry x="220" y="430" width="170" height="80" as="geometry"/>
                </mxCell>
                <mxCell id="uUpwp7Zjqu_J_z46YPz_-1" value="" style="shape=flexArrow;endArrow=classic;html=1;sketch=1;curveFitting=1;jiggle=2;" parent="1" edge="1">
                    <mxGeometry width="50" height="50" relative="1" as="geometry">
                        <mxPoint x="130" y="469.55" as="sourcePoint"/>
                        <mxPoint x="210" y="469.55" as="targetPoint"/>
                    </mxGeometry>
                </mxCell>
                <mxCell id="uUpwp7Zjqu_J_z46YPz_-2" value="" style="shape=flexArrow;endArrow=classic;html=1;sketch=1;curveFitting=1;jiggle=2;" parent="1" edge="1">
                    <mxGeometry width="50" height="50" relative="1" as="geometry">
                        <mxPoint x="410" y="469.55" as="sourcePoint"/>
                        <mxPoint x="490" y="469.55" as="targetPoint"/>
                    </mxGeometry>
                </mxCell>
                <mxCell id="uUpwp7Zjqu_J_z46YPz_-4" value="data_folder, path_parameters, path_Ct" style="text;html=1;align=center;verticalAlign=middle;whiteSpace=wrap;rounded=0;" parent="1" vertex="1">
                    <mxGeometry x="140" y="560" width="60" height="30" as="geometry"/>
                </mxCell>
                <mxCell id="p6MxSXm87l1MYtdNNz_5-2" value="Arrays of wind spees, blade deflections, tower deflections" style="text;html=1;align=center;verticalAlign=middle;resizable=0;points=[];autosize=1;strokeColor=none;fillColor=none;" parent="1" vertex="1">
                    <mxGeometry x="360" y="570" width="330" height="30" as="geometry"/>
                </mxCell>
                <mxCell id="p6MxSXm87l1MYtdNNz_5-3" value="process_wind_files" style="rounded=0;whiteSpace=wrap;html=1;fillColor=#ffe6cc;strokeColor=#d79b00;sketch=1;curveFitting=1;jiggle=2;" parent="1" vertex="1">
                    <mxGeometry x="240" y="580" width="120" height="60" as="geometry"/>
                </mxCell>
                <mxCell id="p6MxSXm87l1MYtdNNz_5-4" value="" style="shape=flexArrow;endArrow=classic;html=1;sketch=1;curveFitting=1;jiggle=2;" parent="1" edge="1">
                    <mxGeometry width="50" height="50" relative="1" as="geometry">
                        <mxPoint x="140" y="609.55" as="sourcePoint"/>
                        <mxPoint x="220" y="609.55" as="targetPoint"/>
                    </mxGeometry>
                </mxCell>
                <mxCell id="p6MxSXm87l1MYtdNNz_5-5" value="" style="shape=flexArrow;endArrow=classic;html=1;sketch=1;curveFitting=1;jiggle=2;" parent="1" edge="1">
                    <mxGeometry width="50" height="50" relative="1" as="geometry">
                        <mxPoint x="385" y="609.55" as="sourcePoint"/>
                        <mxPoint x="465" y="609.55" as="targetPoint"/>
                    </mxGeometry>
                </mxCell>
                <mxCell id="p6MxSXm87l1MYtdNNz_5-6" value="wind_file, path_parameters, path_Ct" style="text;html=1;align=center;verticalAlign=middle;whiteSpace=wrap;rounded=0;" parent="1" vertex="1">
                    <mxGeometry x="130" y="420" width="60" height="30" as="geometry"/>
                </mxCell>
                <mxCell id="p6MxSXm87l1MYtdNNz_5-7" value="returns tuples of the inputs" style="text;html=1;align=center;verticalAlign=middle;whiteSpace=wrap;rounded=0;" parent="1" vertex="1">
                    <mxGeometry x="420" y="420" width="60" height="30" as="geometry"/>
                </mxCell>
                <mxCell id="p6MxSXm87l1MYtdNNz_5-8" value="plot_results" style="rounded=0;whiteSpace=wrap;html=1;fillColor=#d5e8d4;strokeColor=#82b366;sketch=1;curveFitting=1;jiggle=2;" parent="1" vertex="1">
                    <mxGeometry x="250" y="700" width="120" height="60" as="geometry"/>
                </mxCell>
                <mxCell id="p6MxSXm87l1MYtdNNz_5-10" value="" style="shape=flexArrow;endArrow=classic;html=1;sketch=1;curveFitting=1;jiggle=2;" parent="1" edge="1">
                    <mxGeometry width="50" height="50" relative="1" as="geometry">
                        <mxPoint x="160" y="729.55" as="sourcePoint"/>
                        <mxPoint x="240" y="729.55" as="targetPoint"/>
                    </mxGeometry>
                </mxCell>
                <mxCell id="p6MxSXm87l1MYtdNNz_5-11" value="" style="shape=flexArrow;endArrow=classic;html=1;sketch=1;curveFitting=1;jiggle=2;" parent="1" edge="1">
                    <mxGeometry width="50" height="50" relative="1" as="geometry">
                        <mxPoint x="390" y="729.55" as="sourcePoint"/>
                        <mxPoint x="470" y="729.55" as="targetPoint"/>
                    </mxGeometry>
                </mxCell>
                <mxCell id="p6MxSXm87l1MYtdNNz_5-12" value="outputs of process_wind_file" style="text;html=1;align=center;verticalAlign=middle;whiteSpace=wrap;rounded=0;" parent="1" vertex="1">
                    <mxGeometry x="140" y="680" width="60" height="30" as="geometry"/>
                </mxCell>
                <mxCell id="vxuNhXaRRoZBbk1IF8HY-1" value="plot_combined_results&amp;nbsp;" style="rounded=0;whiteSpace=wrap;html=1;fillColor=#d5e8d4;strokeColor=#82b366;sketch=1;curveFitting=1;jiggle=2;" parent="1" vertex="1">
                    <mxGeometry x="250" y="810" width="120" height="60" as="geometry"/>
                </mxCell>
                <mxCell id="vxuNhXaRRoZBbk1IF8HY-2" value="" style="shape=flexArrow;endArrow=classic;html=1;sketch=1;curveFitting=1;jiggle=2;" parent="1" edge="1">
                    <mxGeometry width="50" height="50" relative="1" as="geometry">
                        <mxPoint x="155" y="839.55" as="sourcePoint"/>
                        <mxPoint x="235" y="839.55" as="targetPoint"/>
                    </mxGeometry>
                </mxCell>
                <mxCell id="vxuNhXaRRoZBbk1IF8HY-3" value="" style="shape=flexArrow;endArrow=classic;html=1;sketch=1;curveFitting=1;jiggle=2;" parent="1" edge="1">
                    <mxGeometry width="50" height="50" relative="1" as="geometry">
                        <mxPoint x="385" y="839.55" as="sourcePoint"/>
                        <mxPoint x="465" y="839.55" as="targetPoint"/>
                    </mxGeometry>
                </mxCell>
                <mxCell id="vxuNhXaRRoZBbk1IF8HY-4" value="Takes all data from all folders" style="text;html=1;align=center;verticalAlign=middle;whiteSpace=wrap;rounded=0;" parent="1" vertex="1">
                    <mxGeometry x="155" y="790" width="60" height="30" as="geometry"/>
                </mxCell>
                <mxCell id="vxuNhXaRRoZBbk1IF8HY-5" value="Plots of the mean deflections of blade and tower against wind speed with error bars" style="text;html=1;align=center;verticalAlign=middle;whiteSpace=wrap;rounded=0;" parent="1" vertex="1">
                    <mxGeometry x="365" y="680" width="160" height="30" as="geometry"/>
                </mxCell>
                <mxCell id="vxuNhXaRRoZBbk1IF8HY-6" value="Plots of the mean deflections of blade and tower against wind speed with error bars" style="text;html=1;align=center;verticalAlign=middle;whiteSpace=wrap;rounded=0;" parent="1" vertex="1">
                    <mxGeometry x="390" y="800" width="160" height="30" as="geometry"/>
                </mxCell>
            </root>
        </mxGraphModel>
    </diagram>
</mxfile>